<svg width="32" height="60" viewBox="0 0 32 60" fill="none" xmlns="http://www.w3.org/2000/svg">
<path fill-rule="evenodd" clip-rule="evenodd" d="M16.265 -0.423975L16 -0.5896L15.735 -0.423975L-0.264961 9.57603L-0.499961 9.7229V10V29.7229L-0.943359 30L-0.499961 30.2771V50V50.2771L-0.264961 50.424L15.735 60.424L16 60.5896L16.265 60.424L32.265 50.424L32.5 50.2771V50V30.2771L32.9434 30L32.5 29.7229V10V9.7229L32.265 9.57603L16.265 -0.423975ZM31.5 29.0979V10.2771L16.5 0.902148V19.7229L31.5 29.0979ZM15.5 19.7229V0.902148L0.500039 10.2771V29.0979L15.5 19.7229ZM0.500039 30.9021V49.7229L15.5 59.0979V40.2771L0.500039 30.9021ZM16.5 40.2771V59.0979L31.5 49.7229V30.9021L16.5 40.2771ZM16 39.4104L0.943436 30L16 20.5896L31.0566 30L16 39.4104Z" fill="#35374c"/>
</svg>
