<?xml version="1.0" encoding="utf-8"?>
<!-- Generator: Adobe Illustrator 27.5.0, SVG Export Plug-In . SVG Version: 6.00 Build 0)  -->
<svg version="1.1" id="Layer_1" xmlns="http://www.w3.org/2000/svg" xmlns:xlink="http://www.w3.org/1999/xlink" x="0px" y="0px"
	 viewBox="0 0 176.9 18" style="enable-background:new 0 0 176.9 18;" xml:space="preserve">
<style type="text/css">
	.st0{fill:#35374C;}
	.st1{fill:#F28C4C;}
</style>
<g>
	<g>
		<path class="st0" d="M58.6,1.7c-1,0-1.7,0.8-1.7,1.7v6.7c0,3-1.9,4.1-3.9,4.1c-2,0-3.2-1.4-3.2-3.8v-7c0-0.9-0.7-1.7-1.6-1.7
			c-1,0-1.7,0.8-1.7,1.7v7.4c0,4.3,2.1,6.7,5.8,6.7c1.7,0,3.8-0.9,4.7-2.6v0.8c0,0.9,0.7,1.7,1.6,1.7c1,0,1.7-0.8,1.7-1.7V3.4
			C60.3,2.5,59.5,1.7,58.6,1.7z M72.8,1.5c-1.7,0-3.8,0.9-4.7,2.6V3.4c0-0.9-0.7-1.7-1.6-1.7c-1,0-1.7,0.8-1.7,1.7v12.2
			c0,0.9,0.7,1.7,1.6,1.7c1,0,1.7-0.8,1.7-1.7V8.9c0-3,1.9-4.1,3.9-4.1c2,0,3.2,1.4,3.2,3.8v7c0,0.9,0.7,1.7,1.6,1.7
			c1,0,1.7-0.8,1.7-1.7V8.2C78.6,3.9,76.4,1.5,72.8,1.5z M89.8,8.3l-2.3-0.6c-0.8-0.2-1.7-0.5-1.9-1.1c-0.2-0.5-0.1-0.9,0.1-1.3
			C86,4.8,87,4.5,87.8,4.5c0.8,0,1.8,0.3,2.6,1c0.7,0.6,1.4,0.7,2,0.2c0.5-0.4,0.7-1.2,0.3-2c-1-1.6-2.9-2.3-4.9-2.3
			c-2.8,0-5.2,1.8-5.4,4c-0.2,2.5,1,4.2,4.2,5.1l2.1,0.5c1.1,0.3,2.1,0.7,2.1,1.7c0,1.1-1.1,1.8-2.6,1.8c-1.5,0-2.7-0.7-3.3-1.8
			c-0.3-0.6-0.9-1-1.7-0.7c-0.7,0.3-1.1,1-0.8,1.8c0.8,2.2,3.2,3.5,5.5,3.5c3.5,0,6.1-1.7,6.1-4.6C93.8,11.3,93.1,9.2,89.8,8.3z
			 M104.3,1.5c-4.3,0-7.9,3.1-7.9,7.9c0,4.9,3.6,8,7.9,8c4.3,0,8-3.2,8-8C112.3,4.6,108.7,1.5,104.3,1.5z M104.3,14.2
			c-2.5,0-4.6-1.9-4.6-4.8c0-2.8,2.1-4.7,4.6-4.7c2.5,0,4.7,1.8,4.7,4.7C109,12.3,106.9,14.2,104.3,14.2z M128,1.7
			c-1,0-1.7,0.8-1.7,1.7v6.7c0,3-1.9,4.1-3.9,4.1c-2,0-3.2-1.4-3.2-3.8v-7c0-0.9-0.7-1.7-1.6-1.7c-1,0-1.7,0.8-1.7,1.7v7.4
			c0,4.3,2.1,6.7,5.8,6.7c1.7,0,3.8-0.9,4.7-2.6v0.8c0,0.9,0.7,1.7,1.6,1.7c1,0,1.7-0.8,1.7-1.7V3.4C129.7,2.5,128.9,1.7,128,1.7z
			 M143.1,1.6c-0.5-0.1-0.9-0.1-1.4-0.1c-1.9,0-3.4,1.1-4.2,3.8v-2c0-0.9-0.7-1.7-1.7-1.7c-0.9,0-1.6,0.8-1.6,1.7v12.2
			c0,0.9,0.7,1.7,1.6,1.7c1,0,1.7-0.8,1.7-1.7v-4c0-4.1,1.2-7,4.1-7c1,0,2.4,0.4,2.7-1.1C144.5,2.7,143.9,1.8,143.1,1.6z M153.7,4.8
			c1,0,2,0.3,2.7,0.8c0.7,0.4,1.9,0.4,2.3-0.4c0.5-0.8,0.3-1.8-0.4-2.3c-1.3-0.9-2.9-1.4-4.7-1.4c-4.4,0-8.1,3.1-8.1,8s3.7,8,8.1,8
			c1.8,0,3.4-0.5,4.7-1.4c0.7-0.5,0.9-1.4,0.4-2.3c-0.5-0.8-1.6-0.8-2.3-0.4c-0.8,0.5-1.8,0.8-2.7,0.8c-2.5,0-4.8-1.8-4.8-4.7
			S151.1,4.8,153.7,4.8z M176.9,9.2c-0.1-4.7-3.4-7.6-7.6-7.6c-4.3,0-7.8,3.1-7.8,7.9c0,4.9,3.5,8,7.8,8c2.2,0,4.5-0.8,6-2.4
			c0.6-0.6,0.6-1.6-0.1-2.1c-0.7-0.6-1.6-0.3-2.1,0.1c-1.1,0.9-2,1.5-3.6,1.5c-2.4,0-4.3-1.5-4.7-3.8h10.6
			C176.2,10.7,176.9,10,176.9,9.2z M164.8,8.2c0.3-2.4,2.1-3.8,4.5-3.8c2.3,0,4,1.4,4.3,3.8H164.8z"/>
	</g>
</g>
<g>
	<g>
		<path class="st1" d="M5.9,0.6C5.5,0.2,4.9,0,4.4,0c0,0,0,0,0,0C3.8,0,3.3,0.2,2.9,0.6C-1,4.6-1,11.1,3,15c2,2,4.6,3,7.2,3
			c2.6,0,5.2-1,7.1-2.9c0.4-0.4,0.6-0.9,0.6-1.5c0-0.6-0.2-1.1-0.6-1.5L5.9,0.6z M28.3,3C24.4-1,17.9-1,14,2.9
			c-0.4,0.4-0.6,0.9-0.6,1.5c0,0.6,0.2,1.1,0.6,1.5l11.5,11.5c0.4,0.4,0.9,0.6,1.5,0.6c0,0,0,0,0,0c0.6,0,1.1-0.2,1.5-0.6
			C32.3,13.4,32.2,6.9,28.3,3z"/>
	</g>
</g>
</svg>
